<svg width="40" height="40" viewBox="0 0 40 40" fill="none" xmlns="http://www.w3.org/2000/svg">
<circle cx="20" cy="20" r="20" fill="#F9F9FB"/>
<mask id="mask0_820_140024" style="mask-type:alpha" maskUnits="userSpaceOnUse" x="0" y="0" width="40" height="40">
<circle cx="20" cy="20" r="20" fill="#D9D9D9"/>
</mask>
<g mask="url(#mask0_820_140024)">
<path fill-rule="evenodd" clip-rule="evenodd" d="M20.0006 23.7843C23.4659 23.7843 26.2751 20.9751 26.2751 17.5098C26.2751 14.0445 23.4659 11.2353 20.0006 11.2353C16.5353 11.2353 13.7261 14.0445 13.7261 17.5098C13.7261 20.9751 16.5353 23.7843 20.0006 23.7843ZM20.0005 74.3725C32.7789 74.3725 43.1378 64.0136 43.1378 51.2353C43.1378 38.4569 32.7789 28.098 20.0005 28.098C7.22218 28.098 -3.13672 38.4569 -3.13672 51.2353C-3.13672 64.0136 7.22218 74.3725 20.0005 74.3725Z" fill="#E8E8F4"/>
</g>
</svg>
