<svg width="22" height="24" viewBox="0 0 22 24" fill="none" xmlns="http://www.w3.org/2000/svg">
<path fill-rule="evenodd" clip-rule="evenodd" d="M11.9198 0.331484L20.1378 5.08856C20.9014 5.53053 21.3717 6.34734 21.3717 7.2313V16.7454C21.3717 17.6294 20.9014 18.4462 20.1378 18.8882L11.9198 23.6453C11.1562 24.0872 10.2155 24.0872 9.45197 23.6453L1.2339 18.8882C0.470359 18.4462 0 17.6294 0 16.7454V7.2313C0 6.34734 0.470359 5.53053 1.2339 5.08856L9.45197 0.331484C10.2155 -0.110495 11.1562 -0.110495 11.9198 0.331484ZM10.6859 8.27703L7.48011 10.1327V13.844L10.6859 15.6997L13.8916 13.844V10.1327L10.6859 8.27703Z" fill="white"/>
</svg>
