<svg width="73" height="24" viewBox="0 0 73 24" fill="none" xmlns="http://www.w3.org/2000/svg">
<path fill-rule="evenodd" clip-rule="evenodd" d="M28.0352 16.3093L31.7541 6.67464H33.7222L37.4276 16.3093H35.6224L34.8895 14.3361H30.5461L29.8268 16.3093H28.0352ZM32.7178 8.41649L31.0619 12.9208H34.3737L32.7178 8.41649ZM44.7545 12.7303C44.7545 15.0845 43.4786 16.4317 41.7006 16.4317C41.0084 16.4317 40.4383 16.2276 39.8818 15.8874V18.4594H38.2666V9.19216H39.5018L39.7597 9.85897C40.2754 9.43711 40.9269 9.06969 41.8499 9.06969C43.5058 9.06969 44.7545 10.4033 44.7545 12.7303ZM43.2072 12.7303C43.2072 11.2606 42.4607 10.3897 41.3884 10.3897C40.7776 10.3897 40.2619 10.6619 39.8818 10.9748V14.6082C40.3026 14.894 40.8048 15.1117 41.3477 15.0981C42.4471 15.0981 43.2072 14.2816 43.2072 12.7303ZM52.2578 12.7303C52.2578 15.0845 50.982 16.4317 49.2039 16.4317C48.5117 16.4317 47.9416 16.2276 47.3851 15.8874V18.4594H45.77V9.19216H47.0051L47.263 9.85897C47.7788 9.43711 48.4303 9.06969 49.3532 9.06969C51.0091 9.06969 52.2578 10.4033 52.2578 12.7303ZM50.7105 12.7303C50.7105 11.2606 49.964 10.3897 48.8917 10.3897C48.281 10.3897 47.7652 10.6619 47.3852 10.9748V14.6082C47.8059 14.894 48.3081 15.1117 48.851 15.0981C49.9504 15.0981 50.7105 14.2816 50.7105 12.7303ZM59.354 13.2746H54.4134C54.4949 14.4449 55.2821 15.2478 56.5444 15.2478C57.2094 15.2478 57.9695 15.0301 58.6482 14.6491L59.0825 15.6969C58.2817 16.1732 57.318 16.4317 56.4086 16.4317C54.332 16.4317 52.9068 15.1526 52.9068 12.7847C52.9068 10.5258 54.2913 9.04247 56.1643 9.04247C58.1324 9.04247 59.354 10.5802 59.354 12.8528V13.2746ZM56.1508 10.2536C55.1735 10.2536 54.5084 11.0837 54.4134 12.2812H57.8609C57.7659 11.0837 57.1416 10.2536 56.1508 10.2536ZM61.9032 16.3093H60.288V6.42969H61.9032V16.3093ZM64.9139 16.3093H63.2987V6.42969H64.9139V16.3093ZM72.6616 12.7439C72.6616 15.0029 71.2093 16.459 69.2955 16.459C67.3546 16.459 65.9294 15.0165 65.9294 12.7575C65.9294 10.4986 67.3817 9.04247 69.3091 9.04247C71.2228 9.04247 72.6616 10.4849 72.6616 12.7439ZM71.1685 12.7575C71.1685 11.3559 70.3949 10.3761 69.2955 10.3761C68.1825 10.3761 67.4224 11.3423 67.4224 12.7439C67.4224 14.1456 68.1961 15.1117 69.3091 15.1117C70.3949 15.1117 71.1685 14.1592 71.1685 12.7575Z" fill="white"/>
<path fill-rule="evenodd" clip-rule="evenodd" d="M11.9198 0.331484L20.1378 5.08856C20.9014 5.53053 21.3717 6.34734 21.3717 7.2313V16.7454C21.3717 17.6294 20.9014 18.4462 20.1378 18.8882L11.9198 23.6453C11.1562 24.0872 10.2155 24.0872 9.45197 23.6453L1.2339 18.8882C0.470359 18.4462 0 17.6294 0 16.7454V7.2313C0 6.34734 0.470359 5.53053 1.2339 5.08856L9.45197 0.331484C10.2155 -0.110495 11.1562 -0.110495 11.9198 0.331484ZM10.6859 8.27703L7.48011 10.1327V13.844L10.6859 15.6997L13.8916 13.844V10.1327L10.6859 8.27703Z" fill="white"/>
</svg>
