<svg width="24" height="24" viewBox="0 0 24 24" fill="none" xmlns="http://www.w3.org/2000/svg">
<g clip-path="url(#clip0_1608_27020)">
<path fill-rule="evenodd" clip-rule="evenodd" d="M19.9697 8.27269C20.7258 9.2433 21.3847 10.3594 21.919 11.6C21.9741 11.7262 22.0025 11.8624 22.0025 12C22.0025 12.1377 21.9741 12.2738 21.919 12.4C19.899 17.09 16.099 20 11.999 20C10.9136 20 9.84919 19.7961 8.83327 19.4091L10.43 17.8124C10.9448 17.9361 11.4696 18 11.999 18C15.169 18 18.169 15.71 19.899 12C19.5065 11.1583 19.0486 10.3896 18.5382 9.70421L19.9697 8.27269ZM15.1658 4.5913C14.1496 4.20411 13.0848 4.00001 11.999 4.00001C7.89902 4.00001 4.09902 6.91001 2.07902 11.6C2.02396 11.7262 1.99553 11.8624 1.99553 12C1.99553 12.1377 2.02396 12.2738 2.07902 12.4C2.61352 13.641 3.27264 14.7574 4.02896 15.7282L5.46047 14.2966C4.9498 13.611 4.49169 12.8421 4.09902 12C5.82902 8.29001 8.82902 6.00002 11.999 6.00001C12.5289 6.00001 13.054 6.06399 13.5692 6.18789L15.1658 4.5913ZM11.7493 8.00782C11.046 8.0518 10.3651 8.28099 9.77674 8.67414C9.11894 9.11366 8.60625 9.73838 8.3035 10.4693C8.13371 10.8792 8.03423 11.3122 8.00682 11.7503L11.7493 8.00782ZM12.2503 15.9921C12.6879 15.9646 13.1203 15.8651 13.5298 15.6955C14.2607 15.3928 14.8854 14.8801 15.3249 14.2223C15.7178 13.6343 15.9469 12.9541 15.9911 12.2513L12.2503 15.9921Z" fill="currentColor"/>
<rect x="2.80762" y="19.7782" width="24" height="2" rx="1" transform="rotate(-45 2.80762 19.7782)" fill="black"/>
</g>
<defs>
<clipPath id="clip0_1608_27020">
<rect width="24" height="24" fill="white"/>
</clipPath>
</defs>
</svg>
