<svg xmlns="http://www.w3.org/2000/svg"><symbol id="sprite-add" viewBox="0 0 24 24"><path d="M12 2C10.0222 2 8.08879 2.58649 6.4443 3.6853C4.79981 4.78412 3.51809 6.3459 2.76121 8.17317C2.00433 10.0004 1.8063 12.0111 2.19215 13.9509C2.578 15.8907 3.53041 17.6725 4.92894 19.0711C6.32746 20.4696 8.10929 21.422 10.0491 21.8079C11.9889 22.1937 13.9996 21.9957 15.8268 21.2388C17.6541 20.4819 19.2159 19.2002 20.3147 17.5557C21.4135 15.9112 22 13.9778 22 12C22 10.6868 21.7413 9.38642 21.2388 8.17317C20.7363 6.95991 19.9997 5.85752 19.0711 4.92893C18.1425 4.00035 17.0401 3.26375 15.8268 2.7612C14.6136 2.25866 13.3132 2 12 2ZM12 20C10.4178 20 8.87104 19.5308 7.55544 18.6518C6.23985 17.7727 5.21447 16.5233 4.60897 15.0615C4.00347 13.5997 3.84504 11.9911 4.15372 10.4393C4.4624 8.88743 5.22433 7.46197 6.34315 6.34315C7.46197 5.22433 8.88743 4.4624 10.4393 4.15372C11.9911 3.84504 13.5997 4.00346 15.0615 4.60896C16.5233 5.21447 17.7727 6.23984 18.6518 7.55544C19.5308 8.87103 20 10.4177 20 12C20 14.1217 19.1572 16.1566 17.6569 17.6569C16.1566 19.1571 14.1217 20 12 20ZM16 11H13V8C13 7.73478 12.8946 7.48043 12.7071 7.29289C12.5196 7.10536 12.2652 7 12 7C11.7348 7 11.4804 7.10536 11.2929 7.29289C11.1054 7.48043 11 7.73478 11 8V11H8C7.73479 11 7.48043 11.1054 7.2929 11.2929C7.10536 11.4804 7 11.7348 7 12C7 12.2652 7.10536 12.5196 7.2929 12.7071C7.48043 12.8946 7.73479 13 8 13H11V16C11 16.2652 11.1054 16.5196 11.2929 16.7071C11.4804 16.8946 11.7348 17 12 17C12.2652 17 12.5196 16.8946 12.7071 16.7071C12.8946 16.5196 13 16.2652 13 16V13H16C16.2652 13 16.5196 12.8946 16.7071 12.7071C16.8946 12.5196 17 12.2652 17 12C17 11.7348 16.8946 11.4804 16.7071 11.2929C16.5196 11.1054 16.2652 11 16 11Z" fill="currentColor"></path></symbol><symbol id="sprite-adminSettings" viewBox="0 0 16 16"><path d="M11.1425 0.5H4.8575C2.1275 0.5 0.5 2.1275 0.5 4.8575V11.135C0.5 13.8725 2.1275 15.5 4.8575 15.5H11.135C13.865 15.5 15.4925 13.8725 15.4925 11.1425V4.8575C15.5 2.1275 13.8725 0.5 11.1425 0.5ZM4.7525 3.125C4.7525 2.8175 5.0075 2.5625 5.315 2.5625C5.6225 2.5625 5.8775 2.8175 5.8775 3.125V6.05C5.8775 6.3575 5.6225 6.6125 5.315 6.6125C5.0075 6.6125 4.7525 6.3575 4.7525 6.05V3.125ZM6.22708 11.2834C6.02795 11.3829 5.8775 11.5732 5.8775 11.7958V12.875C5.8775 13.1825 5.6225 13.4375 5.315 13.4375C5.0075 13.4375 4.7525 13.1825 4.7525 12.875V11.7958C4.7525 11.5732 4.60201 11.3829 4.40299 11.2832C3.73305 10.9476 3.275 10.2603 3.275 9.4625C3.275 8.3375 4.19 7.415 5.315 7.415C6.44 7.415 7.3625 8.33 7.3625 9.4625C7.3625 10.2604 6.89877 10.9479 6.22708 11.2834ZM11.2475 12.875C11.2475 13.1825 10.9925 13.4375 10.685 13.4375C10.3775 13.4375 10.1225 13.1825 10.1225 12.875V9.95C10.1225 9.6425 10.3775 9.3875 10.685 9.3875C10.9925 9.3875 11.2475 9.6425 11.2475 9.95V12.875ZM10.685 8.5775C9.56 8.5775 8.6375 7.6625 8.6375 6.53C8.6375 5.73211 9.10123 5.04463 9.77292 4.70911C9.97205 4.60964 10.1225 4.41931 10.1225 4.19671V3.125C10.1225 2.8175 10.3775 2.5625 10.685 2.5625C10.9925 2.5625 11.2475 2.8175 11.2475 3.125V4.20421C11.2475 4.42681 11.398 4.61709 11.597 4.71678C12.2669 5.05236 12.725 5.73974 12.725 6.5375C12.725 7.6625 11.81 8.5775 10.685 8.5775Z" fill="currentColor"></path></symbol><symbol id="sprite-calendar" viewBox="0 0 24 24"><path d="M12 14C12.1978 14 12.3911 13.9414 12.5556 13.8315C12.72 13.7216 12.8482 13.5654 12.9239 13.3827C12.9996 13.2 13.0194 12.9989 12.9808 12.8049C12.9422 12.6109 12.847 12.4327 12.7071 12.2929C12.5673 12.153 12.3891 12.0578 12.1951 12.0192C12.0011 11.9806 11.8 12.0004 11.6173 12.0761C11.4346 12.1518 11.2784 12.28 11.1685 12.4444C11.0586 12.6089 11 12.8022 11 13C11 13.2652 11.1054 13.5196 11.2929 13.7071C11.4804 13.8946 11.7348 14 12 14ZM17 14C17.1978 14 17.3911 13.9414 17.5556 13.8315C17.72 13.7216 17.8482 13.5654 17.9239 13.3827C17.9996 13.2 18.0194 12.9989 17.9808 12.8049C17.9422 12.6109 17.847 12.4327 17.7071 12.2929C17.5673 12.153 17.3891 12.0578 17.1951 12.0192C17.0011 11.9806 16.8 12.0004 16.6173 12.0761C16.4346 12.1518 16.2784 12.28 16.1685 12.4444C16.0586 12.6089 16 12.8022 16 13C16 13.2652 16.1054 13.5196 16.2929 13.7071C16.4804 13.8946 16.7348 14 17 14ZM12 18C12.1978 18 12.3911 17.9414 12.5556 17.8315C12.72 17.7216 12.8482 17.5654 12.9239 17.3827C12.9996 17.2 13.0194 16.9989 12.9808 16.8049C12.9422 16.6109 12.847 16.4327 12.7071 16.2929C12.5673 16.153 12.3891 16.0578 12.1951 16.0192C12.0011 15.9806 11.8 16.0004 11.6173 16.0761C11.4346 16.1518 11.2784 16.28 11.1685 16.4444C11.0586 16.6089 11 16.8022 11 17C11 17.2652 11.1054 17.5196 11.2929 17.7071C11.4804 17.8946 11.7348 18 12 18ZM17 18C17.1978 18 17.3911 17.9414 17.5556 17.8315C17.72 17.7216 17.8482 17.5654 17.9239 17.3827C17.9996 17.2 18.0194 16.9989 17.9808 16.8049C17.9422 16.6109 17.847 16.4327 17.7071 16.2929C17.5673 16.153 17.3891 16.0578 17.1951 16.0192C17.0011 15.9806 16.8 16.0004 16.6173 16.0761C16.4346 16.1518 16.2784 16.28 16.1685 16.4444C16.0586 16.6089 16 16.8022 16 17C16 17.2652 16.1054 17.5196 16.2929 17.7071C16.4804 17.8946 16.7348 18 17 18ZM7 14C7.19778 14 7.39112 13.9414 7.55557 13.8315C7.72002 13.7216 7.84819 13.5654 7.92388 13.3827C7.99957 13.2 8.01937 12.9989 7.98079 12.8049C7.9422 12.6109 7.84696 12.4327 7.70711 12.2929C7.56725 12.153 7.38907 12.0578 7.19509 12.0192C7.00111 11.9806 6.80004 12.0004 6.61732 12.0761C6.43459 12.1518 6.27841 12.28 6.16853 12.4444C6.05865 12.6089 6 12.8022 6 13C6 13.2652 6.10536 13.5196 6.29289 13.7071C6.48043 13.8946 6.73478 14 7 14ZM19 4H18V3C18 2.73478 17.8946 2.48043 17.7071 2.29289C17.5196 2.10536 17.2652 2 17 2C16.7348 2 16.4804 2.10536 16.2929 2.29289C16.1054 2.48043 16 2.73478 16 3V4H8V3C8 2.73478 7.89464 2.48043 7.70711 2.29289C7.51957 2.10536 7.26522 2 7 2C6.73478 2 6.48043 2.10536 6.29289 2.29289C6.10536 2.48043 6 2.73478 6 3V4H5C4.20435 4 3.44129 4.31607 2.87868 4.87868C2.31607 5.44129 2 6.20435 2 7V19C2 19.7956 2.31607 20.5587 2.87868 21.1213C3.44129 21.6839 4.20435 22 5 22H19C19.7956 22 20.5587 21.6839 21.1213 21.1213C21.6839 20.5587 22 19.7956 22 19V7C22 6.20435 21.6839 5.44129 21.1213 4.87868C20.5587 4.31607 19.7956 4 19 4ZM20 19C20 19.2652 19.8946 19.5196 19.7071 19.7071C19.5196 19.8946 19.2652 20 19 20H5C4.73478 20 4.48043 19.8946 4.29289 19.7071C4.10536 19.5196 4 19.2652 4 19V10H20V19ZM20 8H4V7C4 6.73478 4.10536 6.48043 4.29289 6.29289C4.48043 6.10536 4.73478 6 5 6H19C19.2652 6 19.5196 6.10536 19.7071 6.29289C19.8946 6.48043 20 6.73478 20 7V8ZM7 18C7.19778 18 7.39112 17.9414 7.55557 17.8315C7.72002 17.7216 7.84819 17.5654 7.92388 17.3827C7.99957 17.2 8.01937 16.9989 7.98079 16.8049C7.9422 16.6109 7.84696 16.4327 7.70711 16.2929C7.56725 16.153 7.38907 16.0578 7.19509 16.0192C7.00111 15.9806 6.80004 16.0004 6.61732 16.0761C6.43459 16.1518 6.27841 16.28 6.16853 16.4444C6.05865 16.6089 6 16.8022 6 17C6 17.2652 6.10536 17.5196 6.29289 17.7071C6.48043 17.8946 6.73478 18 7 18Z" fill="currentColor"></path></symbol><symbol id="sprite-check" viewBox="0 0 24 24"><path d="M18.7104 7.20998C18.6175 7.11625 18.5069 7.04186 18.385 6.99109C18.2632 6.94032 18.1324 6.91418 18.0004 6.91418C17.8684 6.91418 17.7377 6.94032 17.6159 6.99109C17.494 7.04186 17.3834 7.11625 17.2904 7.20998L9.84044 14.67L6.71044 11.53C6.61392 11.4367 6.49998 11.3634 6.37512 11.3142C6.25026 11.265 6.11694 11.2409 5.98276 11.2432C5.84858 11.2455 5.71617 11.2743 5.59309 11.3278C5.47001 11.3812 5.35868 11.4585 5.26544 11.555C5.1722 11.6515 5.09889 11.7654 5.04968 11.8903C5.00048 12.0152 4.97635 12.1485 4.97867 12.2827C4.98099 12.4168 5.00972 12.5493 5.06321 12.6723C5.1167 12.7954 5.19392 12.9067 5.29044 13L9.13044 16.84C9.2234 16.9337 9.334 17.0081 9.45586 17.0589C9.57772 17.1096 9.70843 17.1358 9.84044 17.1358C9.97245 17.1358 10.1032 17.1096 10.225 17.0589C10.3469 17.0081 10.4575 16.9337 10.5504 16.84L18.7104 8.67998C18.8119 8.58634 18.893 8.47269 18.9484 8.34619C19.0038 8.21969 19.0324 8.08308 19.0324 7.94498C19.0324 7.80688 19.0038 7.67028 18.9484 7.54378C18.893 7.41728 18.8119 7.30363 18.7104 7.20998Z" fill="currentColor"></path></symbol><symbol id="sprite-close" viewBox="0 0 24 24"><path d="M13.4099 12L19.7099 5.71C19.8982 5.5217 20.004 5.2663 20.004 5C20.004 4.7337 19.8982 4.47831 19.7099 4.29C19.5216 4.1017 19.2662 3.99591 18.9999 3.99591C18.7336 3.99591 18.4782 4.1017 18.2899 4.29L11.9999 10.59L5.70994 4.29C5.52164 4.1017 5.26624 3.99591 4.99994 3.99591C4.73364 3.99591 4.47824 4.1017 4.28994 4.29C4.10164 4.47831 3.99585 4.7337 3.99585 5C3.99585 5.2663 4.10164 5.5217 4.28994 5.71L10.5899 12L4.28994 18.29C4.19621 18.383 4.12182 18.4936 4.07105 18.6154C4.02028 18.7373 3.99414 18.868 3.99414 19C3.99414 19.132 4.02028 19.2627 4.07105 19.3846C4.12182 19.5064 4.19621 19.617 4.28994 19.71C4.3829 19.8037 4.4935 19.8781 4.61536 19.9289C4.73722 19.9797 4.86793 20.0058 4.99994 20.0058C5.13195 20.0058 5.26266 19.9797 5.38452 19.9289C5.50638 19.8781 5.61698 19.8037 5.70994 19.71L11.9999 13.41L18.2899 19.71C18.3829 19.8037 18.4935 19.8781 18.6154 19.9289C18.7372 19.9797 18.8679 20.0058 18.9999 20.0058C19.132 20.0058 19.2627 19.9797 19.3845 19.9289C19.5064 19.8781 19.617 19.8037 19.7099 19.71C19.8037 19.617 19.8781 19.5064 19.9288 19.3846C19.9796 19.2627 20.0057 19.132 20.0057 19C20.0057 18.868 19.9796 18.7373 19.9288 18.6154C19.8781 18.4936 19.8037 18.383 19.7099 18.29L13.4099 12Z" fill="currentColor"></path></symbol><symbol id="sprite-code" viewBox="0 0 24 24"><path d="M16.19 2H7.81C4.17 2 2 4.17 2 7.81V16.18C2 19.83 4.17 22 7.81 22H16.18C19.82 22 21.99 19.83 21.99 16.19V7.81C22 4.17 19.83 2 16.19 2ZM9.94 13.27C9.26 14.29 8.32 15.12 7.22 15.67C7.12 15.72 7 15.75 6.89 15.75C6.61 15.75 6.35 15.6 6.22 15.34C6.03 14.97 6.18 14.52 6.56 14.33C7.43 13.9 8.17 13.24 8.7 12.44C8.88 12.17 8.88 11.83 8.7 11.56C8.16 10.76 7.42 10.1 6.56 9.67C6.18 9.49 6.03 9.04 6.22 8.66C6.4 8.29 6.85 8.14 7.22 8.33C8.32 8.88 9.26 9.71 9.94 10.73C10.46 11.5 10.46 12.5 9.94 13.27ZM17 15.75H13C12.59 15.75 12.25 15.41 12.25 15C12.25 14.59 12.59 14.25 13 14.25H17C17.41 14.25 17.75 14.59 17.75 15C17.75 15.41 17.41 15.75 17 15.75Z" fill="currentColor"></path></symbol><symbol id="sprite-connection" viewBox="0 0 24 24"><path d="M21.7101 9.29L17.7101 5.29C17.6169 5.19676 17.5062 5.1228 17.3844 5.07234C17.2626 5.02188 17.132 4.99591 17.0001 4.99591C16.7338 4.99591 16.4784 5.1017 16.2901 5.29C16.1018 5.47831 15.996 5.7337 15.996 6C15.996 6.2663 16.1018 6.5217 16.2901 6.71L18.5901 9H7.00014C6.73492 9 6.48057 9.10536 6.29303 9.2929C6.1055 9.48043 6.00014 9.73479 6.00014 10C6.00014 10.2652 6.1055 10.5196 6.29303 10.7071C6.48057 10.8946 6.73492 11 7.00014 11H21.0001C21.1976 10.999 21.3903 10.9396 21.554 10.8293C21.7177 10.7189 21.8451 10.5626 21.9201 10.38C21.9967 10.1979 22.0176 9.99718 21.9803 9.80319C21.9429 9.6092 21.8489 9.43063 21.7101 9.29ZM17.0001 13H3.00014C2.80271 13.001 2.61 13.0604 2.44628 13.1707C2.28256 13.2811 2.15516 13.4374 2.08014 13.62C2.00356 13.8021 1.98264 14.0028 2.02001 14.1968C2.05739 14.3908 2.15138 14.5694 2.29014 14.71L6.29014 18.71C6.3831 18.8037 6.4937 18.8781 6.61556 18.9289C6.73742 18.9797 6.86813 19.0058 7.00014 19.0058C7.13215 19.0058 7.26286 18.9797 7.38472 18.9289C7.50658 18.8781 7.61718 18.8037 7.71014 18.71C7.80387 18.617 7.87826 18.5064 7.92903 18.3846C7.9798 18.2627 8.00594 18.132 8.00594 18C8.00594 17.868 7.9798 17.7373 7.92903 17.6154C7.87826 17.4936 7.80387 17.383 7.71014 17.29L5.41014 15H17.0001C17.2654 15 17.5197 14.8946 17.7072 14.7071C17.8948 14.5196 18.0001 14.2652 18.0001 14C18.0001 13.7348 17.8948 13.4804 17.7072 13.2929C17.5197 13.1054 17.2654 13 17.0001 13Z" fill="currentColor"></path></symbol><symbol id="sprite-dashboard" viewBox="0 0 16 16"><path d="M11.1425 0.5H4.8575C2.1275 0.5 0.5 2.1275 0.5 4.8575V11.135C0.5 13.8725 2.1275 15.5 4.8575 15.5H11.135C13.865 15.5 15.4925 13.8725 15.4925 11.1425V4.8575C15.5 2.1275 13.8725 0.5 11.1425 0.5ZM6.4325 11.1425C6.4325 11.6225 6.0425 12.0125 5.555 12.0125C5.075 12.0125 4.685 11.6225 4.685 11.1425V8.6975C4.685 8.2175 5.075 7.8275 5.555 7.8275C6.0425 7.8275 6.4325 8.2175 6.4325 8.6975V11.1425ZM11.315 11.1425C11.315 11.6225 10.925 12.0125 10.445 12.0125C9.9575 12.0125 9.5675 11.6225 9.5675 11.1425V4.8575C9.5675 4.3775 9.9575 3.9875 10.445 3.9875C10.925 3.9875 11.315 4.3775 11.315 4.8575V11.1425Z" fill="currentColor"></path></symbol><symbol id="sprite-document" viewBox="0 0 24 24"><path d="M21 8.94C20.9896 8.84813 20.9695 8.75763 20.94 8.67V8.58C20.8919 8.47718 20.8278 8.38267 20.75 8.3L14.75 2.3C14.6673 2.22222 14.5728 2.15808 14.47 2.11C14.4402 2.10576 14.4099 2.10576 14.38 2.11C14.2784 2.05174 14.1662 2.01434 14.05 2H10C9.20435 2 8.44129 2.31607 7.87868 2.87868C7.31607 3.44129 7 4.20435 7 5V6H6C5.20435 6 4.44129 6.31607 3.87868 6.87868C3.31607 7.44129 3 8.20435 3 9V19C3 19.7956 3.31607 20.5587 3.87868 21.1213C4.44129 21.6839 5.20435 22 6 22H14C14.7956 22 15.5587 21.6839 16.1213 21.1213C16.6839 20.5587 17 19.7956 17 19V18H18C18.7956 18 19.5587 17.6839 20.1213 17.1213C20.6839 16.5587 21 15.7956 21 15V9C21 9 21 9 21 8.94ZM15 5.41L17.59 8H16C15.7348 8 15.4804 7.89464 15.2929 7.70711C15.1054 7.51957 15 7.26522 15 7V5.41ZM15 19C15 19.2652 14.8946 19.5196 14.7071 19.7071C14.5196 19.8946 14.2652 20 14 20H6C5.73478 20 5.48043 19.8946 5.29289 19.7071C5.10536 19.5196 5 19.2652 5 19V9C5 8.73478 5.10536 8.48043 5.29289 8.29289C5.48043 8.10536 5.73478 8 6 8H7V15C7 15.7956 7.31607 16.5587 7.87868 17.1213C8.44129 17.6839 9.20435 18 10 18H15V19ZM19 15C19 15.2652 18.8946 15.5196 18.7071 15.7071C18.5196 15.8946 18.2652 16 18 16H10C9.73478 16 9.48043 15.8946 9.29289 15.7071C9.10536 15.5196 9 15.2652 9 15V5C9 4.73478 9.10536 4.48043 9.29289 4.29289C9.48043 4.10536 9.73478 4 10 4H13V7C13 7.79565 13.3161 8.55871 13.8787 9.12132C14.4413 9.68393 15.2044 10 16 10H19V15Z" fill="currentColor"></path></symbol><symbol id="sprite-documents" viewBox="0 0 18 18"><path d="M11.8498 1.65749C11.5423 1.34999 11.0098 1.55999 11.0098 1.98749V4.60499C11.0098 5.69999 11.9398 6.60749 13.0723 6.60749C13.7848 6.615 14.7748 6.61499 15.6223 6.61499C16.0498 6.61499 16.2748 6.11249 15.9748 5.81249C14.8948 4.72499 12.9598 2.76749 11.8498 1.65749Z" fill="currentColor"></path><path d="M15.375 7.6425H13.2075C11.43 7.6425 9.9825 6.195 9.9825 4.4175V2.25C9.9825 1.8375 9.645 1.5 9.2325 1.5H6.0525C3.7425 1.5 1.875 3 1.875 5.6775V12.3225C1.875 15 3.7425 16.5 6.0525 16.5H11.9475C14.2575 16.5 16.125 15 16.125 12.3225V8.3925C16.125 7.98 15.7875 7.6425 15.375 7.6425ZM8.625 13.3125H5.625C5.3175 13.3125 5.0625 13.0575 5.0625 12.75C5.0625 12.4425 5.3175 12.1875 5.625 12.1875H8.625C8.9325 12.1875 9.1875 12.4425 9.1875 12.75C9.1875 13.0575 8.9325 13.3125 8.625 13.3125ZM10.125 10.3125H5.625C5.3175 10.3125 5.0625 10.0575 5.0625 9.75C5.0625 9.4425 5.3175 9.1875 5.625 9.1875H10.125C10.4325 9.1875 10.6875 9.4425 10.6875 9.75C10.6875 10.0575 10.4325 10.3125 10.125 10.3125Z" fill="currentColor"></path></symbol><symbol id="sprite-down-arrow" viewBox="0 0 24 24"><path d="M16.9997 9.17C16.8123 8.98375 16.5589 8.87921 16.2947 8.87921C16.0305 8.87921 15.7771 8.98375 15.5897 9.17L11.9997 12.71L8.4597 9.17C8.27234 8.98375 8.01889 8.87921 7.7547 8.87921C7.49052 8.87921 7.23707 8.98375 7.0497 9.17C6.95598 9.26297 6.88158 9.37357 6.83081 9.49543C6.78004 9.61729 6.75391 9.74799 6.75391 9.88C6.75391 10.012 6.78004 10.1427 6.83081 10.2646C6.88158 10.3864 6.95598 10.497 7.0497 10.59L11.2897 14.83C11.3827 14.9237 11.4933 14.9981 11.6151 15.0489C11.737 15.0997 11.8677 15.1258 11.9997 15.1258C12.1317 15.1258 12.2624 15.0997 12.3843 15.0489C12.5061 14.9981 12.6167 14.9237 12.7097 14.83L16.9997 10.59C17.0934 10.497 17.1678 10.3864 17.2186 10.2646C17.2694 10.1427 17.2955 10.012 17.2955 9.88C17.2955 9.74799 17.2694 9.61729 17.2186 9.49543C17.1678 9.37357 17.0934 9.26297 16.9997 9.17Z" fill="currentColor"></path></symbol><symbol id="sprite-edit" viewBox="0 0 24 24"><path d="M5 18H9.24C9.37161 18.0008 9.50207 17.9755 9.62391 17.9258C9.74574 17.876 9.85656 17.8027 9.95 17.71L16.87 10.78L19.71 8C19.8037 7.90704 19.8781 7.79644 19.9289 7.67458C19.9797 7.55272 20.0058 7.42201 20.0058 7.29C20.0058 7.15799 19.9797 7.02728 19.9289 6.90542C19.8781 6.78356 19.8037 6.67296 19.71 6.58L15.47 2.29C15.377 2.19627 15.2664 2.12188 15.1446 2.07111C15.0227 2.02034 14.892 1.9942 14.76 1.9942C14.628 1.9942 14.4973 2.02034 14.3754 2.07111C14.2536 2.12188 14.143 2.19627 14.05 2.29L11.23 5.12L4.29 12.05C4.19732 12.1434 4.12399 12.2543 4.07423 12.3761C4.02446 12.4979 3.99924 12.6284 4 12.76V17C4 17.2652 4.10536 17.5196 4.29289 17.7071C4.48043 17.8946 4.73478 18 5 18ZM14.76 4.41L17.59 7.24L16.17 8.66L13.34 5.83L14.76 4.41ZM6 13.17L11.93 7.24L14.76 10.07L8.83 16H6V13.17ZM21 20H3C2.73478 20 2.48043 20.1054 2.29289 20.2929C2.10536 20.4804 2 20.7348 2 21C2 21.2652 2.10536 21.5196 2.29289 21.7071C2.48043 21.8946 2.73478 22 3 22H21C21.2652 22 21.5196 21.8946 21.7071 21.7071C21.8946 21.5196 22 21.2652 22 21C22 20.7348 21.8946 20.4804 21.7071 20.2929C21.5196 20.1054 21.2652 20 21 20Z" fill="currentColor"></path></symbol><symbol id="sprite-eye-crossed" viewBox="0 0 24 24"><g clip-path="url(#clip0_1608_27020)"><path fill-rule="evenodd" clip-rule="evenodd" d="M19.9697 8.27269C20.7258 9.2433 21.3847 10.3594 21.919 11.6C21.9741 11.7262 22.0025 11.8624 22.0025 12C22.0025 12.1377 21.9741 12.2738 21.919 12.4C19.899 17.09 16.099 20 11.999 20C10.9136 20 9.84919 19.7961 8.83327 19.4091L10.43 17.8124C10.9448 17.9361 11.4696 18 11.999 18C15.169 18 18.169 15.71 19.899 12C19.5065 11.1583 19.0486 10.3896 18.5382 9.70421L19.9697 8.27269ZM15.1658 4.5913C14.1496 4.20411 13.0848 4.00001 11.999 4.00001C7.89902 4.00001 4.09902 6.91001 2.07902 11.6C2.02396 11.7262 1.99553 11.8624 1.99553 12C1.99553 12.1377 2.02396 12.2738 2.07902 12.4C2.61352 13.641 3.27264 14.7574 4.02896 15.7282L5.46047 14.2966C4.9498 13.611 4.49169 12.8421 4.09902 12C5.82902 8.29001 8.82902 6.00002 11.999 6.00001C12.5289 6.00001 13.054 6.06399 13.5692 6.18789L15.1658 4.5913ZM11.7493 8.00782C11.046 8.0518 10.3651 8.28099 9.77674 8.67414C9.11894 9.11366 8.60625 9.73838 8.3035 10.4693C8.13371 10.8792 8.03423 11.3122 8.00682 11.7503L11.7493 8.00782ZM12.2503 15.9921C12.6879 15.9646 13.1203 15.8651 13.5298 15.6955C14.2607 15.3928 14.8854 14.8801 15.3249 14.2223C15.7178 13.6343 15.9469 12.9541 15.9911 12.2513L12.2503 15.9921Z" fill="currentColor"></path><rect x="2.80762" y="19.7782" width="24" height="2" rx="1" transform="rotate(-45 2.80762 19.7782)" fill="currentColor"></rect></g><defs><clipPath id="clip0_1608_27020"><rect width="24" height="24" fill="currentColor"></rect></clipPath></defs></symbol><symbol id="sprite-eye" viewBox="0 0 24 24"><path d="M21.9196 11.6C19.8996 6.91 16.0996 4 11.9996 4C7.89958 4 4.09958 6.91 2.07958 11.6C2.02452 11.7262 1.99609 11.8623 1.99609 12C1.99609 12.1377 2.02452 12.2738 2.07958 12.4C4.09958 17.09 7.89958 20 11.9996 20C16.0996 20 19.8996 17.09 21.9196 12.4C21.9746 12.2738 22.0031 12.1377 22.0031 12C22.0031 11.8623 21.9746 11.7262 21.9196 11.6ZM11.9996 18C8.82958 18 5.82958 15.71 4.09958 12C5.82958 8.29 8.82958 6 11.9996 6C15.1696 6 18.1696 8.29 19.8996 12C18.1696 15.71 15.1696 18 11.9996 18ZM11.9996 8C11.2085 8 10.4351 8.2346 9.7773 8.67412C9.1195 9.11365 8.60681 9.73836 8.30406 10.4693C8.00131 11.2002 7.9221 12.0044 8.07644 12.7804C8.23078 13.5563 8.61174 14.269 9.17115 14.8284C9.73056 15.3878 10.4433 15.7688 11.2192 15.9231C11.9951 16.0775 12.7994 15.9983 13.5303 15.6955C14.2612 15.3928 14.8859 14.8801 15.3255 14.2223C15.765 13.5645 15.9996 12.7911 15.9996 12C15.9996 10.9391 15.5782 9.92172 14.828 9.17157C14.0779 8.42143 13.0604 8 11.9996 8ZM11.9996 14C11.604 14 11.2173 13.8827 10.8884 13.6629C10.5595 13.4432 10.3032 13.1308 10.1518 12.7654C10.0004 12.3999 9.96084 11.9978 10.038 11.6098C10.1152 11.2219 10.3057 10.8655 10.5854 10.5858C10.8651 10.3061 11.2214 10.1156 11.6094 10.0384C11.9974 9.96126 12.3995 10.0009 12.7649 10.1522C13.1304 10.3036 13.4428 10.56 13.6625 10.8889C13.8823 11.2178 13.9996 11.6044 13.9996 12C13.9996 12.5304 13.7889 13.0391 13.4138 13.4142C13.0387 13.7893 12.53 14 11.9996 14Z" fill="currentColor"></path></symbol><symbol id="sprite-integration" viewBox="0 0 24 24"><path d="M19.1997 14.78C18.3397 15.57 17.1997 16.01 16.0297 16H6.36973C2.29973 15.71 2.28973 9.79998 6.36973 9.50998H6.40973C3.61973 1.74998 15.4097 -1.34002 16.7597 6.79998C20.5297 7.27998 22.0597 12.29 19.1997 14.78Z" fill="currentColor"></path><path d="M18.75 21C18.75 21.41 18.41 21.75 18 21.75H14C13.95 21.75 13.91 21.75 13.86 21.73C13.57 22.47 12.84 23 12 23C11.16 23 10.43 22.47 10.14 21.73C10.09 21.75 10.05 21.75 10 21.75H6C5.59 21.75 5.25 21.41 5.25 21C5.25 20.59 5.59 20.25 6 20.25H10C10.05 20.25 10.09 20.25 10.14 20.27C10.34 19.75 10.75 19.34 11.27 19.14C11.25 19.09 11.25 19.05 11.25 19V16H12.75V19C12.75 19.05 12.75 19.09 12.73 19.14C13.25 19.34 13.66 19.75 13.86 20.27C13.91 20.25 13.95 20.25 14 20.25H18C18.41 20.25 18.75 20.59 18.75 21Z" fill="currentColor"></path></symbol><symbol id="sprite-key" viewBox="0 0 22 22"><path d="M20 3.41L20.71 2.71C20.8983 2.5217 21.0041 2.2663 21.0041 2C21.0041 1.7337 20.8983 1.47831 20.71 1.29C20.5217 1.1017 20.2663 0.995911 20 0.995911C19.7337 0.995911 19.4783 1.1017 19.29 1.29L17.89 2.7L15.06 5.53L8.74997 11.83C7.71601 11.1478 6.46564 10.8738 5.24114 11.0609C4.01664 11.248 2.90519 11.883 2.12216 12.8429C1.33913 13.8027 0.940263 15.019 1.00285 16.2561C1.06544 17.4933 1.58503 18.6631 2.46093 19.539C3.33684 20.415 4.5067 20.9345 5.74383 20.9971C6.98097 21.0597 8.19729 20.6608 9.15712 19.8778C10.117 19.0948 10.752 17.9833 10.9391 16.7588C11.1262 15.5343 10.8521 14.284 10.17 13.25L15.76 7.65L17.88 9.78C17.9732 9.87258 18.0838 9.9459 18.2053 9.99575C18.3269 10.0456 18.4571 10.071 18.5885 10.0706C18.7199 10.0701 18.8499 10.0438 18.9711 9.99304C19.0924 9.94233 19.2024 9.86824 19.295 9.775C19.3876 9.68176 19.4609 9.5712 19.5107 9.44963C19.5606 9.32806 19.586 9.19786 19.5855 9.06647C19.5851 8.93507 19.5587 8.80505 19.508 8.68384C19.4573 8.56262 19.3832 8.45258 19.29 8.36L17.17 6.24L18.59 4.83L19.29 5.53C19.3826 5.62324 19.4926 5.69733 19.6138 5.74804C19.735 5.79875 19.865 5.82509 19.9964 5.82556C20.1278 5.82602 20.258 5.8006 20.3796 5.75075C20.5012 5.70089 20.6117 5.62758 20.705 5.535C20.7982 5.44242 20.8723 5.33238 20.923 5.21116C20.9737 5.08995 21.0001 4.95993 21.0005 4.82854C21.001 4.69714 20.9756 4.56694 20.9257 4.44537C20.8759 4.3238 20.8026 4.21324 20.71 4.12L20 3.41ZM5.99997 19C5.40663 19 4.82661 18.8241 4.33326 18.4944C3.83992 18.1648 3.4554 17.6962 3.22834 17.1481C3.00127 16.5999 2.94186 15.9967 3.05762 15.4147C3.17337 14.8328 3.4591 14.2982 3.87865 13.8787C4.29821 13.4591 4.83276 13.1734 5.4147 13.0576C5.99665 12.9419 6.59985 13.0013 7.14802 13.2284C7.6962 13.4554 8.16474 13.8399 8.49438 14.3333C8.82403 14.8266 8.99997 15.4067 8.99997 16C8.99997 16.7957 8.6839 17.5587 8.12129 18.1213C7.55869 18.6839 6.79562 19 5.99997 19Z" fill="currentColor"></path></symbol><symbol id="sprite-left-arrow" viewBox="0 0 24 24"><path d="M16.9999 11H9.4099L12.7099 7.71C12.8982 7.5217 13.004 7.2663 13.004 7C13.004 6.7337 12.8982 6.47831 12.7099 6.29C12.5216 6.1017 12.2662 5.99591 11.9999 5.99591C11.7336 5.99591 11.4782 6.1017 11.2899 6.29L6.2899 11.29C6.19886 11.3851 6.12749 11.4973 6.0799 11.62C5.97988 11.8635 5.97988 12.1365 6.0799 12.38C6.12749 12.5028 6.19886 12.6149 6.2899 12.71L11.2899 17.71C11.3829 17.8037 11.4935 17.8781 11.6153 17.9289C11.7372 17.9797 11.8679 18.0058 11.9999 18.0058C12.1319 18.0058 12.2626 17.9797 12.3845 17.9289C12.5063 17.8781 12.6169 17.8037 12.7099 17.71C12.8036 17.617 12.878 17.5064 12.9288 17.3846C12.9796 17.2627 13.0057 17.132 13.0057 17C13.0057 16.868 12.9796 16.7373 12.9288 16.6154C12.878 16.4936 12.8036 16.383 12.7099 16.29L9.4099 13H16.9999C17.2651 13 17.5195 12.8946 17.707 12.7071C17.8945 12.5196 17.9999 12.2652 17.9999 12C17.9999 11.7348 17.8945 11.4804 17.707 11.2929C17.5195 11.1054 17.2651 11 16.9999 11Z" fill="currentColor"></path></symbol><symbol id="sprite-list" viewBox="0 0 24 24"><path d="M3.70999 16.29C3.61488 16.199 3.50274 16.1276 3.37999 16.08C3.13653 15.98 2.86345 15.98 2.61999 16.08C2.49724 16.1276 2.38509 16.199 2.28999 16.29C2.19895 16.3851 2.12758 16.4972 2.07999 16.62C2.00341 16.8021 1.98249 17.0028 2.01986 17.1968C2.05723 17.3908 2.15123 17.5694 2.28999 17.71C2.38719 17.7983 2.4988 17.8694 2.61999 17.92C2.73969 17.9729 2.86912 18.0002 2.99999 18.0002C3.13086 18.0002 3.26029 17.9729 3.37999 17.92C3.50117 17.8694 3.61279 17.7983 3.70999 17.71C3.84875 17.5694 3.94274 17.3908 3.98012 17.1968C4.01749 17.0028 3.99657 16.8021 3.91999 16.62C3.87239 16.4972 3.80103 16.3851 3.70999 16.29ZM6.99999 8H21C21.2652 8 21.5196 7.89464 21.7071 7.70711C21.8946 7.51957 22 7.26522 22 7C22 6.73478 21.8946 6.48043 21.7071 6.29289C21.5196 6.10536 21.2652 6 21 6H6.99999C6.73477 6 6.48042 6.10536 6.29288 6.29289C6.10535 6.48043 5.99999 6.73478 5.99999 7C5.99999 7.26522 6.10535 7.51957 6.29288 7.70711C6.48042 7.89464 6.73477 8 6.99999 8ZM3.70999 11.29C3.56936 11.1512 3.39079 11.0572 3.1968 11.0199C3.00281 10.9825 2.8021 11.0034 2.61999 11.08C2.4988 11.1306 2.38719 11.2017 2.28999 11.29C2.19895 11.3851 2.12758 11.4972 2.07999 11.62C2.02708 11.7397 1.99976 11.8691 1.99976 12C1.99976 12.1309 2.02708 12.2603 2.07999 12.38C2.13063 12.5012 2.20166 12.6128 2.28999 12.71C2.38719 12.7983 2.4988 12.8694 2.61999 12.92C2.73969 12.9729 2.86912 13.0002 2.99999 13.0002C3.13086 13.0002 3.26029 12.9729 3.37999 12.92C3.50117 12.8694 3.61279 12.7983 3.70999 12.71C3.79832 12.6128 3.86935 12.5012 3.91999 12.38C3.97289 12.2603 4.00022 12.1309 4.00022 12C4.00022 11.8691 3.97289 11.7397 3.91999 11.62C3.87239 11.4972 3.80103 11.3851 3.70999 11.29ZM21 11H6.99999C6.73477 11 6.48042 11.1054 6.29288 11.2929C6.10535 11.4804 5.99999 11.7348 5.99999 12C5.99999 12.2652 6.10535 12.5196 6.29288 12.7071C6.48042 12.8946 6.73477 13 6.99999 13H21C21.2652 13 21.5196 12.8946 21.7071 12.7071C21.8946 12.5196 22 12.2652 22 12C22 11.7348 21.8946 11.4804 21.7071 11.2929C21.5196 11.1054 21.2652 11 21 11ZM3.70999 6.29C3.61488 6.19896 3.50274 6.12759 3.37999 6.08C3.19788 6.00342 2.99716 5.9825 2.80317 6.01987C2.60919 6.05725 2.43061 6.15124 2.28999 6.29C2.20166 6.3872 2.13063 6.49882 2.07999 6.62C2.02708 6.7397 1.99976 6.86913 1.99976 7C1.99976 7.13087 2.02708 7.2603 2.07999 7.38C2.13063 7.50119 2.20166 7.6128 2.28999 7.71C2.38719 7.79833 2.4988 7.86936 2.61999 7.92C2.8021 7.99658 3.00281 8.0175 3.1968 7.98013C3.39079 7.94275 3.56936 7.84876 3.70999 7.71C3.79832 7.6128 3.86935 7.50119 3.91999 7.38C3.97289 7.2603 4.00022 7.13087 4.00022 7C4.00022 6.86913 3.97289 6.7397 3.91999 6.62C3.86935 6.49882 3.79832 6.3872 3.70999 6.29ZM21 16H6.99999C6.73477 16 6.48042 16.1054 6.29288 16.2929C6.10535 16.4804 5.99999 16.7348 5.99999 17C5.99999 17.2652 6.10535 17.5196 6.29288 17.7071C6.48042 17.8946 6.73477 18 6.99999 18H21C21.2652 18 21.5196 17.8946 21.7071 17.7071C21.8946 17.5196 22 17.2652 22 17C22 16.7348 21.8946 16.4804 21.7071 16.2929C21.5196 16.1054 21.2652 16 21 16Z" fill="currentColor"></path></symbol><symbol id="sprite-lock" viewBox="0 0 27 32"><path d="M21.4154 11.25V8.08334C21.4154 5.98371 20.5813 3.97007 19.0966 2.48541C17.612 1.00075 15.5983 0.166672 13.4987 0.166672C11.3991 0.166672 9.38543 1.00075 7.90077 2.48541C6.41611 3.97007 5.58203 5.98371 5.58203 8.08334V11.25C4.32225 11.25 3.11407 11.7504 2.22327 12.6412C1.33248 13.532 0.832031 14.7402 0.832031 16V27.0833C0.832031 28.3431 1.33248 29.5513 2.22327 30.4421C3.11407 31.3329 4.32225 31.8333 5.58203 31.8333H21.4154C22.6751 31.8333 23.8833 31.3329 24.7741 30.4421C25.6649 29.5513 26.1654 28.3431 26.1654 27.0833V16C26.1654 14.7402 25.6649 13.532 24.7741 12.6412C23.8833 11.7504 22.6751 11.25 21.4154 11.25ZM8.7487 8.08334C8.7487 6.82356 9.24914 5.61538 10.1399 4.72458C11.0307 3.83378 12.2389 3.33334 13.4987 3.33334C14.7585 3.33334 15.9667 3.83378 16.8575 4.72458C17.7483 5.61538 18.2487 6.82356 18.2487 8.08334V11.25H8.7487V8.08334ZM22.9987 27.0833C22.9987 27.5033 22.8319 27.906 22.535 28.2029C22.238 28.4999 21.8353 28.6667 21.4154 28.6667H5.58203C5.16211 28.6667 4.75938 28.4999 4.46245 28.2029C4.16551 27.906 3.9987 27.5033 3.9987 27.0833V16C3.9987 15.5801 4.16551 15.1774 4.46245 14.8804C4.75938 14.5835 5.16211 14.4167 5.58203 14.4167H21.4154C21.8353 14.4167 22.238 14.5835 22.535 14.8804C22.8319 15.1774 22.9987 15.5801 22.9987 16V27.0833Z" fill="currentColor"></path></symbol><symbol id="sprite-login" viewBox="0 0 16 17"><path d="M7.99967 1.83333C6.25301 1.83333 4.83301 3.25333 4.83301 4.99999C4.83301 6.71333 6.17301 8.09999 7.91967 8.15999C7.97301 8.15333 8.02634 8.15333 8.06634 8.15999C8.07967 8.15999 8.08634 8.15999 8.09967 8.15999C8.10634 8.15999 8.10634 8.15999 8.11301 8.15999C9.81967 8.09999 11.1597 6.71333 11.1663 4.99999C11.1663 3.25333 9.74634 1.83333 7.99967 1.83333Z" fill="currentColor"></path><path d="M11.3866 9.93333C9.52664 8.69333 6.49331 8.69333 4.61997 9.93333C3.77331 10.5 3.30664 11.2667 3.30664 12.0867C3.30664 12.9067 3.77331 13.6667 4.61331 14.2267C5.54664 14.8533 6.77331 15.1667 7.99997 15.1667C9.22664 15.1667 10.4533 14.8533 11.3866 14.2267C12.2266 13.66 12.6933 12.9 12.6933 12.0733C12.6866 11.2533 12.2266 10.4933 11.3866 9.93333Z" fill="currentColor"></path></symbol><symbol id="sprite-logout" viewBox="0 0 24 24"><path d="M4 12C4 12.2652 4.10536 12.5196 4.29289 12.7071C4.48043 12.8946 4.73478 13 5 13H12.59L10.29 15.29C10.1963 15.383 10.1219 15.4936 10.0711 15.6154C10.0203 15.7373 9.9942 15.868 9.9942 16C9.9942 16.132 10.0203 16.2627 10.0711 16.3846C10.1219 16.5064 10.1963 16.617 10.29 16.71C10.383 16.8037 10.4936 16.8781 10.6154 16.9289C10.7373 16.9797 10.868 17.0058 11 17.0058C11.132 17.0058 11.2627 16.9797 11.3846 16.9289C11.5064 16.8781 11.617 16.8037 11.71 16.71L15.71 12.71C15.801 12.6149 15.8724 12.5028 15.92 12.38C16.02 12.1365 16.02 11.8635 15.92 11.62C15.8724 11.4972 15.801 11.3851 15.71 11.29L11.71 7.29C11.6168 7.19676 11.5061 7.1228 11.3842 7.07234C11.2624 7.02188 11.1319 6.99591 11 6.99591C10.8681 6.99591 10.7376 7.02188 10.6158 7.07234C10.4939 7.1228 10.3832 7.19676 10.29 7.29C10.1968 7.38324 10.1228 7.49393 10.0723 7.61575C10.0219 7.73757 9.99591 7.86814 9.99591 8C9.99591 8.13186 10.0219 8.26243 10.0723 8.38425C10.1228 8.50607 10.1968 8.61676 10.29 8.71L12.59 11H5C4.73478 11 4.48043 11.1054 4.29289 11.2929C4.10536 11.4804 4 11.7348 4 12ZM17 2H7C6.20435 2 5.44129 2.31607 4.87868 2.87868C4.31607 3.44129 4 4.20435 4 5V8C4 8.26522 4.10536 8.51957 4.29289 8.70711C4.48043 8.89464 4.73478 9 5 9C5.26522 9 5.51957 8.89464 5.70711 8.70711C5.89464 8.51957 6 8.26522 6 8V5C6 4.73478 6.10536 4.48043 6.29289 4.29289C6.48043 4.10536 6.73478 4 7 4H17C17.2652 4 17.5196 4.10536 17.7071 4.29289C17.8946 4.48043 18 4.73478 18 5V19C18 19.2652 17.8946 19.5196 17.7071 19.7071C17.5196 19.8946 17.2652 20 17 20H7C6.73478 20 6.48043 19.8946 6.29289 19.7071C6.10536 19.5196 6 19.2652 6 19V16C6 15.7348 5.89464 15.4804 5.70711 15.2929C5.51957 15.1054 5.26522 15 5 15C4.73478 15 4.48043 15.1054 4.29289 15.2929C4.10536 15.4804 4 15.7348 4 16V19C4 19.7956 4.31607 20.5587 4.87868 21.1213C5.44129 21.6839 6.20435 22 7 22H17C17.7956 22 18.5587 21.6839 19.1213 21.1213C19.6839 20.5587 20 19.7956 20 19V5C20 4.20435 19.6839 3.44129 19.1213 2.87868C18.5587 2.31607 17.7956 2 17 2Z" fill="currentColor"></path></symbol><symbol id="sprite-magnifier" viewBox="0 0 24 24"><path d="M21.7104 20.29L18.0004 16.61C19.4405 14.8144 20.1379 12.5353 19.9492 10.2413C19.7605 7.94733 18.7001 5.81281 16.9859 4.27667C15.2718 2.74053 13.0342 1.91954 10.7333 1.9825C8.43243 2.04546 6.24311 2.98759 4.61553 4.61517C2.98795 6.24275 2.04582 8.43207 1.98286 10.7329C1.9199 13.0338 2.7409 15.2714 4.27704 16.9855C5.81318 18.6997 7.94769 19.7601 10.2417 19.9488C12.5357 20.1375 14.8148 19.4401 16.6104 18L20.2904 21.68C20.3834 21.7738 20.494 21.8482 20.6158 21.8989C20.7377 21.9497 20.8684 21.9758 21.0004 21.9758C21.1324 21.9758 21.2631 21.9497 21.385 21.8989C21.5068 21.8482 21.6174 21.7738 21.7104 21.68C21.8906 21.4936 21.9914 21.2444 21.9914 20.985C21.9914 20.7257 21.8906 20.4765 21.7104 20.29ZM11.0004 18C9.61592 18 8.26255 17.5895 7.1114 16.8203C5.96026 16.0511 5.06305 14.9579 4.53324 13.6788C4.00342 12.3997 3.8648 10.9923 4.1349 9.63439C4.40499 8.27653 5.07168 7.02925 6.05065 6.05028C7.02961 5.07131 8.27689 4.40463 9.63476 4.13453C10.9926 3.86443 12.4001 4.00306 13.6792 4.53287C14.9583 5.06268 16.0515 5.95989 16.8207 7.11103C17.5899 8.26218 18.0004 9.61556 18.0004 11C18.0004 12.8565 17.2629 14.637 15.9501 15.9498C14.6374 17.2625 12.8569 18 11.0004 18Z" fill="currentColor"></path></symbol><symbol id="sprite-menu" viewBox="0 0 24 24"><path d="M12 7C12.3956 7 12.7822 6.8827 13.1111 6.66294C13.44 6.44318 13.6964 6.13082 13.8478 5.76537C13.9991 5.39992 14.0387 4.99778 13.9616 4.60982C13.8844 4.22186 13.6939 3.86549 13.4142 3.58579C13.1345 3.30608 12.7781 3.1156 12.3902 3.03843C12.0022 2.96126 11.6001 3.00087 11.2346 3.15224C10.8692 3.30362 10.5568 3.55996 10.3371 3.88886C10.1173 4.21776 10 4.60444 10 5C10 5.53043 10.2107 6.03914 10.5858 6.41421C10.9609 6.78929 11.4696 7 12 7ZM12 17C11.6044 17 11.2178 17.1173 10.8889 17.3371C10.56 17.5568 10.3036 17.8692 10.1522 18.2346C10.0009 18.6001 9.96126 19.0022 10.0384 19.3902C10.1156 19.7781 10.3061 20.1345 10.5858 20.4142C10.8655 20.6939 11.2219 20.8844 11.6098 20.9616C11.9978 21.0387 12.3999 20.9991 12.7654 20.8478C13.1308 20.6964 13.4432 20.44 13.6629 20.1111C13.8827 19.7822 14 19.3956 14 19C14 18.4696 13.7893 17.9609 13.4142 17.5858C13.0391 17.2107 12.5304 17 12 17ZM12 10C11.6044 10 11.2178 10.1173 10.8889 10.3371C10.56 10.5568 10.3036 10.8692 10.1522 11.2346C10.0009 11.6001 9.96126 12.0022 10.0384 12.3902C10.1156 12.7781 10.3061 13.1345 10.5858 13.4142C10.8655 13.6939 11.2219 13.8844 11.6098 13.9616C11.9978 14.0387 12.3999 13.9991 12.7654 13.8478C13.1308 13.6964 13.4432 13.44 13.6629 13.1111C13.8827 12.7822 14 12.3956 14 12C14 11.4696 13.7893 10.9609 13.4142 10.5858C13.0391 10.2107 12.5304 10 12 10Z" fill="currentColor"></path></symbol><symbol id="sprite-password" viewBox="0 0 16 17"><path d="M12 3.16666H10.5V2.33333C10.5 2.05999 10.2733 1.83333 10 1.83333C9.72667 1.83333 9.5 2.05999 9.5 2.33333V14.6667C9.5 14.94 9.72667 15.1667 10 15.1667C10.2733 15.1667 10.5 14.94 10.5 14.6667V13.8333H12C13.4733 13.8333 14.6667 12.64 14.6667 11.1667V5.83333C14.6667 4.35999 13.4733 3.16666 12 3.16666Z" fill="currentColor"></path><path d="M4.33366 3.16667C2.86033 3.16667 1.66699 4.36001 1.66699 5.83334V11.1667C1.66699 12.64 2.86033 13.8333 4.33366 13.8333H7.66699C8.03366 13.8333 8.33366 13.5333 8.33366 13.1667V3.83334C8.33366 3.46667 8.03366 3.16667 7.66699 3.16667H4.33366ZM4.44699 8.75334C4.41366 8.83334 4.36699 8.90667 4.30699 8.97334C4.24033 9.03334 4.16699 9.08 4.08699 9.11334C4.00699 9.14667 3.92033 9.16667 3.83366 9.16667C3.74699 9.16667 3.66033 9.14667 3.58033 9.11334C3.50033 9.08 3.42699 9.03334 3.36033 8.97334C3.30033 8.90667 3.25366 8.83334 3.21366 8.75334C3.18033 8.67334 3.16699 8.58667 3.16699 8.5C3.16699 8.32667 3.24033 8.15334 3.36033 8.02667C3.39366 8 3.42699 7.97334 3.46033 7.94667C3.50033 7.92 3.54033 7.9 3.58033 7.88667C3.62033 7.86667 3.66033 7.85334 3.70033 7.84667C3.92699 7.8 4.15366 7.87334 4.30699 8.02667C4.42699 8.15334 4.50033 8.32667 4.50033 8.5C4.50033 8.58667 4.48033 8.67334 4.44699 8.75334ZM6.78033 8.75334C6.74699 8.83334 6.70033 8.90667 6.64033 8.97334C6.57366 9.03334 6.50033 9.08 6.42033 9.11334C6.34033 9.14667 6.25366 9.16667 6.16699 9.16667C6.08033 9.16667 5.99366 9.14667 5.91366 9.11334C5.83366 9.08 5.76033 9.03334 5.69366 8.97334C5.56699 8.84667 5.50033 8.68 5.50033 8.5C5.50033 8.41334 5.52033 8.32667 5.55366 8.24667C5.58699 8.16 5.63366 8.09334 5.69366 8.02667C5.94033 7.78 6.38699 7.78 6.64033 8.02667C6.76033 8.15334 6.83366 8.32667 6.83366 8.5C6.83366 8.58667 6.81366 8.67334 6.78033 8.75334Z" fill="currentColor"></path></symbol><symbol id="sprite-pencil" viewBox="0 0 14 15"><path d="M13.6667 4.18914C13.6672 4.10141 13.6503 4.01443 13.6172 3.93321C13.584 3.85198 13.5351 3.77811 13.4733 3.71581L10.6467 0.889145C10.5844 0.827358 10.5105 0.778474 10.4293 0.745298C10.348 0.712121 10.2611 0.695305 10.1733 0.695812C10.0856 0.695305 9.99861 0.712121 9.91739 0.745298C9.83616 0.778474 9.76228 0.827358 9.69999 0.889145L7.81332 2.77581L0.526657 10.0625C0.46487 10.1248 0.415986 10.1986 0.38281 10.2799C0.349634 10.3611 0.332817 10.4481 0.333324 10.5358V13.3625C0.333324 13.5393 0.403562 13.7089 0.528586 13.8339C0.65361 13.9589 0.82318 14.0291 0.999991 14.0291H3.82666C3.91994 14.0342 4.01325 14.0196 4.10054 13.9863C4.18782 13.953 4.26713 13.9017 4.33332 13.8358L11.58 6.54915L13.4733 4.69581C13.5342 4.6312 13.5838 4.55683 13.62 4.47581C13.6264 4.42267 13.6264 4.36895 13.62 4.31581C13.6231 4.28478 13.6231 4.25351 13.62 4.22248L13.6667 4.18914ZM3.55332 12.6958H1.66666V10.8091L8.28666 4.18914L10.1733 6.07581L3.55332 12.6958ZM11.1133 5.13581L9.22666 3.24915L10.1733 2.30915L12.0533 4.18914L11.1133 5.13581Z" fill="currentColor"></path></symbol><symbol id="sprite-plus" viewBox="0 0 24 24"><path d="M19 11H13V5C13 4.73478 12.8946 4.48043 12.7071 4.29289C12.5196 4.10536 12.2652 4 12 4C11.7348 4 11.4804 4.10536 11.2929 4.29289C11.1054 4.48043 11 4.73478 11 5V11H5C4.73478 11 4.48043 11.1054 4.29289 11.2929C4.10536 11.4804 4 11.7348 4 12C4 12.2652 4.10536 12.5196 4.29289 12.7071C4.48043 12.8946 4.73478 13 5 13H11V19C11 19.2652 11.1054 19.5196 11.2929 19.7071C11.4804 19.8946 11.7348 20 12 20C12.2652 20 12.5196 19.8946 12.7071 19.7071C12.8946 19.5196 13 19.2652 13 19V13H19C19.2652 13 19.5196 12.8946 19.7071 12.7071C19.8946 12.5196 20 12.2652 20 12C20 11.7348 19.8946 11.4804 19.7071 11.2929C19.5196 11.1054 19.2652 11 19 11Z" fill="currentColor"></path></symbol><symbol id="sprite-polygon" viewBox="0 0 6 4"><path d="M3.35355 3.52145C3.15829 3.71671 2.84171 3.71671 2.64645 3.52145L0.353554 1.22855C0.0385711 0.91357 0.261655 0.375 0.707108 0.375L5.29289 0.375C5.73835 0.375 5.96143 0.913571 5.64645 1.22855L3.35355 3.52145Z" fill="currentColor"></path></symbol><symbol id="sprite-projects" viewBox="0 0 18 18"><path d="M15.8173 5.23501C15.1798 4.53001 14.1148 4.17751 12.5698 4.17751H12.3898V4.14751C12.3898 2.88751 12.3898 1.32751 9.56978 1.32751H8.42978C5.60978 1.32751 5.60978 2.89501 5.60978 4.14751V4.18501H5.42978C3.87728 4.18501 2.81978 4.53751 2.18228 5.24251C1.43978 6.06751 1.46228 7.17751 1.53728 7.93501L1.54478 7.98751L1.59724 8.5383C1.6115 8.68807 1.69223 8.82346 1.81829 8.90557C2.00007 9.02397 2.26513 9.19354 2.42978 9.28502C2.53478 9.35252 2.64728 9.41251 2.75978 9.47252C4.04228 10.1775 5.45228 10.65 6.88478 10.8825C6.95228 11.5875 7.25978 12.4125 8.90228 12.4125C10.5448 12.4125 10.8673 11.595 10.9198 10.8675C12.4498 10.62 13.9273 10.0875 15.2623 9.30751C15.3073 9.28501 15.3373 9.26251 15.3748 9.24001C15.6568 9.08064 15.9487 8.8862 16.218 8.69354C16.3313 8.61245 16.4035 8.48627 16.4189 8.34776L16.4248 8.29502L16.4623 7.94251C16.4698 7.89751 16.4698 7.86001 16.4773 7.80751C16.5373 7.05001 16.5223 6.01501 15.8173 5.23501ZM9.81728 10.3725C9.81728 11.1675 9.81728 11.2875 8.89478 11.2875C7.97228 11.2875 7.97228 11.145 7.97228 10.38V9.43501H9.81728V10.3725ZM6.68228 4.17751V4.14751C6.68228 2.87251 6.68228 2.40001 8.42978 2.40001H9.56978C11.3173 2.40001 11.3173 2.88001 11.3173 4.14751V4.18501H6.68228V4.17751Z" fill="currentColor"></path><path d="M15.4531 10.3962C15.8074 10.2295 16.2142 10.5104 16.1788 10.9004L15.9299 13.6425C15.7724 15.1425 15.1574 16.6725 11.8574 16.6725H6.14238C2.84238 16.6725 2.22738 15.1425 2.06988 13.65L1.83417 11.0572C1.79913 10.6717 2.19687 10.3913 2.55017 10.5493C3.41217 10.935 4.7855 11.5216 5.69043 11.7696C5.85424 11.8145 5.98783 11.9329 6.06388 12.0848C6.53151 13.0187 7.50698 13.515 8.90238 13.515C10.2841 13.515 11.2712 12.9996 11.7407 12.0625C11.8169 11.9105 11.9503 11.7922 12.1142 11.747C13.0776 11.4812 14.547 10.8225 15.4531 10.3962Z" fill="currentColor"></path></symbol><symbol id="sprite-repositories" viewBox="0 0 12 17"><path d="M6.5625 11H8.625C10.725 11 11.25 10.475 11.25 8.375V5.225C11.25 3.125 10.725 2.6 8.625 2.6H7.05C6.525 2.6 6.4125 2.4425 6.21 2.18L5.4225 1.13C5.1225 0.7325 4.95 0.5 4.1625 0.5H3.375C1.275 0.5 0.75 1.025 0.75 3.125V8.375C0.75 10.475 1.275 11 3.375 11H5.4375V13.25C5.4375 13.2875 5.4525 13.3175 5.46 13.355C5.07 13.505 4.755 13.82 4.605 14.21C4.5675 14.2025 4.5375 14.1875 4.5 14.1875H1.5C1.1925 14.1875 0.9375 14.4425 0.9375 14.75C0.9375 15.0575 1.1925 15.3125 1.5 15.3125H4.5C4.5375 15.3125 4.5675 15.2975 4.605 15.29C4.8225 15.8525 5.3625 16.25 6 16.25C6.6375 16.25 7.1775 15.8525 7.395 15.29C7.4325 15.2975 7.4625 15.3125 7.5 15.3125H10.5C10.8075 15.3125 11.0625 15.0575 11.0625 14.75C11.0625 14.4425 10.8075 14.1875 10.5 14.1875H7.5C7.4625 14.1875 7.4325 14.2025 7.395 14.21C7.245 13.82 6.93 13.505 6.54 13.355C6.5475 13.3175 6.5625 13.2875 6.5625 13.25V11Z" fill="currentColor"></path></symbol><symbol id="sprite-requests" viewBox="0 0 24 24"><path d="M2.50001 10.56L11.5 15.76C11.652 15.8478 11.8245 15.894 12 15.894C12.1755 15.894 12.348 15.8478 12.5 15.76L21.5 10.56C21.6516 10.4721 21.7773 10.3459 21.8648 10.1941C21.9522 10.0423 21.9982 9.8702 21.9982 9.69501C21.9982 9.51982 21.9522 9.3477 21.8648 9.19589C21.7773 9.04409 21.6516 8.91791 21.5 8.83001L12.5 3.63001C12.348 3.54224 12.1755 3.49603 12 3.49603C11.8245 3.49603 11.652 3.54224 11.5 3.63001L2.50001 8.83001C2.34847 8.91791 2.22269 9.04409 2.13525 9.19589C2.04781 9.3477 2.00178 9.51982 2.00178 9.69501C2.00178 9.8702 2.04781 10.0423 2.13525 10.1941C2.22269 10.3459 2.34847 10.4721 2.50001 10.56ZM12 5.65001L19 9.65001L12 13.7L5.00001 9.69001L12 5.65001ZM20.5 13.44L12 18.35L3.50001 13.44C3.38647 13.3735 3.26092 13.33 3.13055 13.3121C3.00018 13.2942 2.86756 13.3022 2.74028 13.3356C2.61301 13.3691 2.49358 13.4273 2.38886 13.507C2.28414 13.5867 2.19617 13.6863 2.13001 13.8C2.06389 13.9141 2.02101 14.0402 2.00382 14.171C1.98664 14.3018 1.9955 14.4347 2.02989 14.562C2.06428 14.6894 2.12352 14.8086 2.20421 14.913C2.28489 15.0173 2.38542 15.1047 2.50001 15.17L11.5 20.37C11.652 20.4578 11.8245 20.504 12 20.504C12.1755 20.504 12.348 20.4578 12.5 20.37L21.5 15.17C21.6146 15.1047 21.7151 15.0173 21.7958 14.913C21.8765 14.8086 21.9357 14.6894 21.9701 14.562C22.0045 14.4347 22.0134 14.3018 21.9962 14.171C21.979 14.0402 21.9361 13.9141 21.87 13.8C21.8038 13.6863 21.7159 13.5867 21.6112 13.507C21.5064 13.4273 21.387 13.3691 21.2597 13.3356C21.1325 13.3022 20.9998 13.2942 20.8695 13.3121C20.7391 13.33 20.6135 13.3735 20.5 13.44Z" fill="currentColor"></path></symbol><symbol id="sprite-settings" viewBox="0 0 24 24"><path d="M21.32 9.55L19.43 8.92L20.32 7.14C20.4102 6.95369 20.4404 6.74397 20.4064 6.53978C20.3723 6.33558 20.2758 6.14699 20.13 6L18 3.87C17.8522 3.72209 17.6618 3.62421 17.4555 3.59013C17.2493 3.55605 17.0375 3.58748 16.85 3.68L15.07 4.57L14.44 2.68C14.3735 2.483 14.2472 2.31163 14.0787 2.18975C13.9102 2.06787 13.7079 2.00155 13.5 2H10.5C10.2904 1.99946 10.0858 2.06482 9.91537 2.18685C9.7449 2.30887 9.61709 2.48138 9.55 2.68L8.92 4.57L7.14 3.68C6.95369 3.58978 6.74397 3.55961 6.53978 3.59364C6.33558 3.62767 6.14699 3.72423 6 3.87L3.87 6C3.72209 6.14777 3.62421 6.33818 3.59013 6.54446C3.55605 6.75074 3.58748 6.96251 3.68 7.15L4.57 8.93L2.68 9.56C2.483 9.62654 2.31163 9.75283 2.18975 9.92131C2.06787 10.0898 2.00155 10.2921 2 10.5V13.5C1.99946 13.7096 2.06482 13.9142 2.18685 14.0846C2.30887 14.2551 2.48138 14.3829 2.68 14.45L4.57 15.08L3.68 16.86C3.58978 17.0463 3.55961 17.256 3.59364 17.4602C3.62767 17.6644 3.72423 17.853 3.87 18L6 20.13C6.14777 20.2779 6.33818 20.3758 6.54446 20.4099C6.75074 20.444 6.96251 20.4125 7.15 20.32L8.93 19.43L9.56 21.32C9.62709 21.5186 9.7549 21.6911 9.92537 21.8132C10.0958 21.9352 10.3004 22.0005 10.51 22H13.51C13.7196 22.0005 13.9242 21.9352 14.0946 21.8132C14.2651 21.6911 14.3929 21.5186 14.46 21.32L15.09 19.43L16.87 20.32C17.0551 20.4079 17.2628 20.4369 17.4649 20.4029C17.667 20.3689 17.8538 20.2737 18 20.13L20.13 18C20.2779 17.8522 20.3758 17.6618 20.4099 17.4555C20.444 17.2493 20.4125 17.0375 20.32 16.85L19.43 15.07L21.32 14.44C21.517 14.3735 21.6884 14.2472 21.8103 14.0787C21.9321 13.9102 21.9985 13.7079 22 13.5V10.5C22.0005 10.2904 21.9352 10.0858 21.8132 9.91537C21.6911 9.7449 21.5186 9.61709 21.32 9.55ZM20 12.78L18.8 13.18C18.5241 13.2695 18.2709 13.418 18.0581 13.6151C17.8452 13.8122 17.6778 14.0533 17.5675 14.3216C17.4571 14.5899 17.4064 14.879 17.419 15.1688C17.4315 15.4586 17.5069 15.7422 17.64 16L18.21 17.14L17.11 18.24L16 17.64C15.7436 17.5122 15.4627 17.4411 15.1763 17.4313C14.89 17.4215 14.6049 17.4734 14.3403 17.5834C14.0758 17.6934 13.8379 17.8589 13.6429 18.0688C13.4479 18.2787 13.3003 18.5281 13.21 18.8L12.81 20H11.22L10.82 18.8C10.7305 18.5241 10.582 18.2709 10.3849 18.0581C10.1878 17.8452 9.94671 17.6778 9.67842 17.5675C9.41014 17.4571 9.12105 17.4064 8.83123 17.419C8.5414 17.4315 8.25777 17.5069 8 17.64L6.86 18.21L5.76 17.11L6.36 16C6.4931 15.7422 6.56852 15.4586 6.58105 15.1688C6.59358 14.879 6.5429 14.5899 6.43254 14.3216C6.32218 14.0533 6.15478 13.8122 5.94195 13.6151C5.72912 13.418 5.47595 13.2695 5.2 13.18L4 12.78V11.22L5.2 10.82C5.47595 10.7305 5.72912 10.582 5.94195 10.3849C6.15478 10.1878 6.32218 9.94671 6.43254 9.67842C6.5429 9.41014 6.59358 9.12105 6.58105 8.83123C6.56852 8.5414 6.4931 8.25777 6.36 8L5.79 6.89L6.89 5.79L8 6.36C8.25777 6.4931 8.5414 6.56852 8.83123 6.58105C9.12105 6.59358 9.41014 6.5429 9.67842 6.43254C9.94671 6.32218 10.1878 6.15478 10.3849 5.94195C10.582 5.72912 10.7305 5.47595 10.82 5.2L11.22 4H12.78L13.18 5.2C13.2695 5.47595 13.418 5.72912 13.6151 5.94195C13.8122 6.15478 14.0533 6.32218 14.3216 6.43254C14.5899 6.5429 14.879 6.59358 15.1688 6.58105C15.4586 6.56852 15.7422 6.4931 16 6.36L17.14 5.79L18.24 6.89L17.64 8C17.5122 8.25645 17.4411 8.53735 17.4313 8.82369C17.4215 9.11003 17.4734 9.39513 17.5834 9.65969C17.6934 9.92424 17.8589 10.1621 18.0688 10.3571C18.2787 10.5521 18.5281 10.6997 18.8 10.79L20 11.19V12.78ZM12 8C11.2089 8 10.4355 8.2346 9.77772 8.67413C9.11993 9.11365 8.60724 9.73836 8.30448 10.4693C8.00173 11.2002 7.92252 12.0044 8.07686 12.7804C8.2312 13.5563 8.61217 14.269 9.17158 14.8284C9.73099 15.3878 10.4437 15.7688 11.2196 15.9231C11.9956 16.0775 12.7998 15.9983 13.5307 15.6955C14.2616 15.3928 14.8864 14.8801 15.3259 14.2223C15.7654 13.5645 16 12.7911 16 12C16 10.9391 15.5786 9.92172 14.8284 9.17158C14.0783 8.42143 13.0609 8 12 8ZM12 14C11.6044 14 11.2178 13.8827 10.8889 13.6629C10.56 13.4432 10.3036 13.1308 10.1522 12.7654C10.0009 12.3999 9.96126 11.9978 10.0384 11.6098C10.1156 11.2219 10.3061 10.8655 10.5858 10.5858C10.8655 10.3061 11.2219 10.1156 11.6098 10.0384C11.9978 9.96126 12.3999 10.0009 12.7654 10.1522C13.1308 10.3036 13.4432 10.56 13.6629 10.8889C13.8827 11.2178 14 11.6044 14 12C14 12.5304 13.7893 13.0391 13.4142 13.4142C13.0391 13.7893 12.5304 14 12 14Z" fill="currentColor"></path></symbol><symbol id="sprite-trash" viewBox="0 0 18 20"><path d="M17 4H13V3C13 2.20435 12.6839 1.44129 12.1213 0.87868C11.5587 0.316071 10.7956 0 10 0H8C7.20435 0 6.44129 0.316071 5.87868 0.87868C5.31607 1.44129 5 2.20435 5 3V4H1C0.734784 4 0.48043 4.10536 0.292893 4.29289C0.105357 4.48043 0 4.73478 0 5C0 5.26522 0.105357 5.51957 0.292893 5.70711C0.48043 5.89464 0.734784 6 1 6H2V17C2 17.7956 2.31607 18.5587 2.87868 19.1213C3.44129 19.6839 4.20435 20 5 20H13C13.7956 20 14.5587 19.6839 15.1213 19.1213C15.6839 18.5587 16 17.7956 16 17V6H17C17.2652 6 17.5196 5.89464 17.7071 5.70711C17.8946 5.51957 18 5.26522 18 5C18 4.73478 17.8946 4.48043 17.7071 4.29289C17.5196 4.10536 17.2652 4 17 4ZM7 3C7 2.73478 7.10536 2.48043 7.29289 2.29289C7.48043 2.10536 7.73478 2 8 2H10C10.2652 2 10.5196 2.10536 10.7071 2.29289C10.8946 2.48043 11 2.73478 11 3V4H7V3ZM14 17C14 17.2652 13.8946 17.5196 13.7071 17.7071C13.5196 17.8946 13.2652 18 13 18H5C4.73478 18 4.48043 17.8946 4.29289 17.7071C4.10536 17.5196 4 17.2652 4 17V6H14V17Z" fill="currentColor"></path></symbol><symbol id="sprite-upload" viewBox="0 0 24 24"><path d="M8.71 7.70999L11 5.40999V15C11 15.2652 11.1054 15.5196 11.2929 15.7071C11.4804 15.8946 11.7348 16 12 16C12.2652 16 12.5196 15.8946 12.7071 15.7071C12.8946 15.5196 13 15.2652 13 15V5.40999L15.29 7.70999C15.383 7.80372 15.4936 7.87811 15.6154 7.92888C15.7373 7.97965 15.868 8.00579 16 8.00579C16.132 8.00579 16.2627 7.97965 16.3846 7.92888C16.5064 7.87811 16.617 7.80372 16.71 7.70999C16.8037 7.61702 16.8781 7.50642 16.9289 7.38456C16.9797 7.26271 17.0058 7.132 17.0058 6.99999C17.0058 6.86798 16.9797 6.73727 16.9289 6.61541C16.8781 6.49355 16.8037 6.38295 16.71 6.28999L12.71 2.28999C12.6149 2.19895 12.5028 2.12758 12.38 2.07999C12.1365 1.97997 11.8635 1.97997 11.62 2.07999C11.4972 2.12758 11.3851 2.19895 11.29 2.28999L7.29 6.28999C7.19676 6.38323 7.1228 6.49392 7.07234 6.61574C7.02188 6.73756 6.99591 6.86813 6.99591 6.99999C6.99591 7.13185 7.02188 7.26242 7.07234 7.38424C7.1228 7.50606 7.19676 7.61675 7.29 7.70999C7.38324 7.80323 7.49393 7.87719 7.61575 7.92765C7.73757 7.97811 7.86814 8.00408 8 8.00408C8.13186 8.00408 8.26243 7.97811 8.38425 7.92765C8.50607 7.87719 8.61676 7.80323 8.71 7.70999ZM21 14C20.7348 14 20.4804 14.1053 20.2929 14.2929C20.1054 14.4804 20 14.7348 20 15V19C20 19.2652 19.8946 19.5196 19.7071 19.7071C19.5196 19.8946 19.2652 20 19 20H5C4.73478 20 4.48043 19.8946 4.29289 19.7071C4.10536 19.5196 4 19.2652 4 19V15C4 14.7348 3.89464 14.4804 3.70711 14.2929C3.51957 14.1053 3.26522 14 3 14C2.73478 14 2.48043 14.1053 2.29289 14.2929C2.10536 14.4804 2 14.7348 2 15V19C2 19.7956 2.31607 20.5587 2.87868 21.1213C3.44129 21.6839 4.20435 22 5 22H19C19.7956 22 20.5587 21.6839 21.1213 21.1213C21.6839 20.5587 22 19.7956 22 19V15C22 14.7348 21.8946 14.4804 21.7071 14.2929C21.5196 14.1053 21.2652 14 21 14Z" fill="currentColor"></path></symbol><symbol id="sprite-url" viewBox="0 0 18 19"><path d="M9 2C4.86 2 1.5 5.36 1.5 9.5C1.5 13.64 4.86 17 9 17C13.14 17 16.5 13.64 16.5 9.5C16.5 5.36 13.14 2 9 2ZM6.4875 11.5775C6.405 11.8025 6.1875 11.945 5.9625 11.945C5.895 11.945 5.835 11.9375 5.7675 11.9075C5.16 11.6825 4.65 11.24 4.3275 10.6625C3.5775 9.3125 4.0425 7.55 5.355 6.7325L7.11 5.645C7.755 5.2475 8.5125 5.1275 9.2325 5.315C9.9525 5.5025 10.56 5.975 10.9275 6.635C11.6775 7.985 11.2125 9.7475 9.9 10.565L9.705 10.7075C9.45 10.8875 9.0975 10.8275 8.9175 10.58C8.7375 10.325 8.7975 9.9725 9.045 9.7925L9.2775 9.6275C10.1175 9.1025 10.4025 8.015 9.945 7.1825C9.7275 6.7925 9.375 6.515 8.955 6.4025C8.535 6.29 8.0925 6.3575 7.71 6.5975L5.94 7.6925C5.13 8.195 4.845 9.2825 5.3025 10.1225C5.49 10.46 5.79 10.7225 6.15 10.8575C6.4425 10.9625 6.5925 11.285 6.4875 11.5775ZM12.69 12.2375L10.935 13.325C10.4925 13.6025 9.9975 13.7375 9.495 13.7375C9.27 13.7375 9.0375 13.7075 8.8125 13.6475C8.0925 13.46 7.485 12.9875 7.125 12.3275C6.375 10.9775 6.84 9.215 8.1525 8.3975L8.3475 8.255C8.6025 8.075 8.955 8.135 9.135 8.3825C9.315 8.6375 9.255 8.99 9.0075 9.17L8.775 9.335C7.935 9.86 7.65 10.9475 8.1075 11.78C8.325 12.17 8.6775 12.4475 9.0975 12.56C9.5175 12.6725 9.96 12.605 10.3425 12.365L12.0975 11.2775C12.9075 10.775 13.1925 9.6875 12.735 8.8475C12.5475 8.51 12.2475 8.2475 11.8875 8.1125C11.595 8.0075 11.445 7.685 11.5575 7.3925C11.6625 7.1 11.9925 6.95 12.2775 7.0625C12.885 7.2875 13.395 7.73 13.7175 8.3075C14.46 9.6575 14.0025 11.42 12.69 12.2375Z" fill="currentColor"></path></symbol><symbol id="sprite-users" viewBox="0 0 18 18"><path d="M6.75 1.5C4.785 1.5 3.1875 3.0975 3.1875 5.0625C3.1875 6.99 4.695 8.55 6.66 8.6175C6.72 8.61 6.78 8.61 6.825 8.6175C6.84 8.6175 6.8475 8.6175 6.8625 8.6175C6.87 8.6175 6.87 8.6175 6.8775 8.6175C8.7975 8.55 10.305 6.99 10.3125 5.0625C10.3125 3.0975 8.715 1.5 6.75 1.5Z" fill="currentColor"></path><path d="M10.5602 10.6125C8.46771 9.2175 5.05521 9.2175 2.94771 10.6125C1.99521 11.25 1.47021 12.1125 1.47021 13.035C1.47021 13.9575 1.99521 14.8125 2.94021 15.4425C3.99021 16.1475 5.37021 16.5 6.75021 16.5C8.13021 16.5 9.51021 16.1475 10.5602 15.4425C11.5052 14.805 12.0302 13.95 12.0302 13.02C12.0227 12.0975 11.5052 11.2425 10.5602 10.6125Z" fill="currentColor"></path><path d="M14.9925 5.50501C15.1125 6.96001 14.0775 8.23501 12.645 8.40751C12.6375 8.40751 12.6375 8.40751 12.63 8.40751H12.6075C12.5625 8.40751 12.5175 8.40751 12.48 8.42251C11.7525 8.46001 11.085 8.22751 10.5825 7.80001C11.355 7.11001 11.7975 6.07501 11.7075 4.95001C11.655 4.34251 11.445 3.78751 11.13 3.31501C11.415 3.17251 11.745 3.08251 12.0825 3.05251C13.5525 2.92501 14.865 4.02001 14.9925 5.50501Z" fill="currentColor"></path><path d="M16.4927 12.4425C16.4327 13.17 15.9677 13.8 15.1877 14.2275C14.4377 14.64 13.4927 14.835 12.5552 14.8125C13.0952 14.325 13.4102 13.7175 13.4702 13.0725C13.5452 12.1425 13.1027 11.25 12.2177 10.5375C11.7152 10.14 11.1302 9.82499 10.4927 9.59249C12.1502 9.11249 14.2352 9.43499 15.5177 10.47C16.2077 11.025 16.5602 11.7225 16.4927 12.4425Z" fill="currentColor"></path></symbol></svg>